<svg width="420" height="82" viewBox="0 0 420 82" fill="none" xmlns="http://www.w3.org/2000/svg">
  <rect y="12" width="420" height="58" rx="10" fill="white"/>
  <path d="M15 20H29V36H48V48H29V64H15V20Z" fill="#203764"/>
  <path d="M42 20H69L54 64H27L42 20Z" fill="#ED8721"/>
  <path d="M91 28.5H98.5V53.5H91V28.5Z" fill="#203764"/>
  <path d="M107 28.5H114.1L127.2 45.8V28.5H134.6V53.5H128L114.3 35.5V53.5H107V28.5Z" fill="#203764"/>
  <path d="M142.8 28.5H150.3V53.5H142.8V28.5Z" fill="#203764"/>
  <path d="M157.6 28.5H180.8V34.7H165V38.2H179.1V43.9H165V47.3H181.1V53.5H157.6V28.5Z" fill="#203764"/>
  <path d="M188 28.5H196.1L204.1 39.8L212.2 28.5H220.4L208 45.6V53.5H200.4V45.6L188 28.5Z" fill="#203764"/>
  <path d="M225.5 28.5H249.4V34.9L235.1 47.2H249.8V53.5H224.8V47.1L239.2 34.8H225.5V28.5Z" fill="#203764"/>
  <path d="M257.1 28.5H264.6V53.5H257.1V28.5Z" fill="#203764"/>
  <path d="M271.8 28.5H300.1V34.9H289.7V53.5H282.2V34.9H271.8V28.5Z" fill="#203764"/>
</svg>
